PathFileType	4	(X/Y/Z)	C:\Users\dbl\Desktop\20210112\20210112\bx_n_0_501.trc
DataRate	CameraRate	NumFrames	NumMarkers	Units	OrigDataRate	OrigDataStartFrame	OrigNumFrames
50.00	50.00	       13	43	mm	50.00	170	       339
Frame#	Time	Top.Head			R.Acromium			L.Acromium			Sternum			R.ASIS			L.ASIS			V.Sacral			R.Thigh.Upper			R.Thigh.Front			R.Thigh.Rear			R.Knee.Lat			R.Knee.Med			R.Shank.Upper			R.Shank.Front			R.Shank.Rear			R.Ankle.Lat			R.Midfoot.Lat			R.Toe.Lat			R.Toe.Tip			R.Toe.Med			R.Ankle.Med			R.Midfoot.Sup			R.Heel			L.Thigh.Upper			L.Thigh.Front			L.Thigh.Rear			L.Knee.Lat			L.Knee.Med			L.Shank.Upper			L.Shank.Front			L.Shank.Rear			L.Ankle.Lat			L.Midfoot.Lat			L.Toe.Lat			L.Toe.Tip			L.Toe.Med			L.Ankle.Med			L.Midfoot.Sup			L.Heel			origin1 front left			origin2 front right			origin 3 back right			origin 4 back leftt			
		X1	Y1	Z1	X2	Y2	Z2	X3	Y3	Z3	X4	Y4	Z4	X5	Y5	Z5	X6	Y6	Z6	X7	Y7	Z7	X8	Y8	Z8	X9	Y9	Z9	X10	Y10	Z10	X11	Y11	Z11	X12	Y12	Z12	X13	Y13	Z13	X14	Y14	Z14	X15	Y15	Z15	X16	Y16	Z16	X17	Y17	Z17	X18	Y18	Z18	X19	Y19	Z19	X20	Y20	Z20	X21	Y21	Z21	X22	Y22	Z22	X23	Y23	Z23	X24	Y24	Z24	X25	Y25	Z25	X26	Y26	Z26	X27	Y27	Z27	X28	Y28	Z28	X29	Y29	Z29	X30	Y30	Z30	X31	Y31	Z31	X32	Y32	Z32	X33	Y33	Z33	X34	Y34	Z34	X35	Y35	Z35	X36	Y36	Z36	X37	Y37	Z37	X38	Y38	Z38	X39	Y39	Z39	X40	Y40	Z40	X41	Y41	Z41	X42	Y42	Z42	X43	Y43	Z43	

170	3.380	-286.95047	113.59382	1665.78320	-418.20493	-78.22587	1398.60034	-446.40024	274.93478	1409.63477	-485.42334	96.07800	1199.83569	-688.08356	-11.02740	1015.72260	-686.56329	230.95381	1035.33313	-871.93689	86.95393	1100.39783	-764.45660	-78.58408	870.82782	-678.31885	-5.67193	809.73346	-762.98126	-65.97115	753.56506	-754.62726	-37.11185	615.97583				-754.94965	-33.59926	567.76831				-785.71033	-50.52088	484.03653				-641.39954	-59.63538	163.12573	-599.59393	-62.10864	157.59598	-546.09558	-10.53739	161.54739	-600.81781	38.85036	165.80838	-727.54242	68.16997	216.84239	-677.63000	56.81398	159.32800				-783.28278	280.58133	873.39899	-683.07697	209.48151	794.78009				-790.69977	252.94962	635.70111							-725.81818	196.53836	537.01373	-804.92633	261.74640	494.15948																																					
171	3.400	-291.41519	113.30701	1669.20129	-420.49164	-78.20725	1401.21362	-449.23691	274.88623	1411.57898	-487.55621	95.82149	1201.58459	-688.31293	-11.71312	1016.47693	-686.69824	230.59567	1035.62646	-872.37189	86.83455	1100.01160	-764.47186	-78.61516	870.77423	-678.28815	-5.86824	809.82159	-763.21820	-66.16318	753.63745	-754.89264	-37.22084	616.06158				-755.14490	-33.48808	567.59564				-786.05426	-50.60496	483.97397				-641.28528	-59.77873	163.14240	-599.42841	-62.18716	157.71077	-546.30823	-10.76470	161.40662	-600.93726	38.83423	166.14632	-727.44031	68.21047	216.38728	-677.63000	56.81398	159.32800				-783.42114	280.74493	873.62732	-683.25427	209.46568	794.73889				-790.89709	252.65584	635.74634							-725.85803	196.55074	537.09521	-805.36115	261.81857	494.35861																																					
172	3.420	-295.78400	113.46260	1672.26819	-423.72247	-78.39001	1403.61768	-452.19473	274.58105	1413.97107	-488.99008	95.77659	1203.59485	-688.62238	-11.81089	1016.97943	-686.95135	230.42575	1035.96545	-873.22644	86.29087	1099.41479	-764.41583	-78.90257	870.96246	-678.54926	-6.16019	809.93311	-763.39178	-65.90769	753.53534	-755.07227	-37.45425	615.86603				-755.07562	-33.62882	567.59412				-786.22711	-50.62368	483.99380				-641.39954	-59.63538	163.12573	-599.42841	-62.18716	157.71077	-546.23651	-10.50212	161.88890	-600.86383	38.73248	166.00801	-727.52747	67.93372	216.66721	-677.72815	56.92001	159.37260				-783.51807	280.42822	873.45258	-683.41907	209.39894	794.90704				-791.20728	252.37566	635.84778							-725.92993	196.44424	537.07190	-805.37225	261.67615	494.05600																																					
173	3.440	-300.08539	113.27734	1675.77271	-426.17084	-78.39684	1406.62793	-455.56277	274.54300	1416.18726	-490.77762	95.52477	1205.60864	-688.75232	-11.99396	1017.45764	-687.08002	230.14384	1036.23242	-873.78900	86.08121	1099.44983	-764.68268	-79.09254	871.09253	-678.39532	-6.47743	810.10657	-763.46838	-66.05976	753.61365	-755.07227	-37.45425	615.86603				-755.09863	-33.66899	567.51245				-786.19025	-50.84425	484.01730				-641.40997	-59.77600	163.02507	-599.59393	-62.10864	157.59598	-546.29407	-10.46484	161.67088	-600.88843	38.81111	166.03583	-727.34015	68.11090	216.92168	-677.72815	56.92001	159.37260				-783.46686	280.18225	873.45459	-683.30878	209.20514	794.86243				-791.54956	252.45824	635.96033							-725.85803	196.55074	537.09521	-805.43414	261.54520	494.21530																																					
174	3.460	-304.85355	113.14895	1679.16907	-429.71756	-77.86053	1408.80591	-458.68320	274.48489	1418.65283	-492.21378	95.34709	1207.69397	-688.96118	-12.11592	1017.52368	-687.83502	229.55275	1036.49780	-874.58197	85.66399	1099.20532	-764.72583	-79.16770	871.00372	-678.45245	-6.73799	810.18671	-763.51569	-66.09494	753.37384	-755.87762	-37.37956	615.18616				-754.94525	-33.93412	567.66351				-786.02301	-50.86298	484.18686				-641.28528	-59.77873	163.14240	-599.59393	-62.10864	157.59598	-546.18567	-10.38849	161.78078	-600.96033	38.73562	166.04810	-727.35474	68.22842	216.78265	-677.63000	56.81398	159.32800				-783.74255	280.23093	873.82977	-683.38794	209.09836	795.01202				-791.46967	252.26711	635.72974							-725.89160	196.37543	537.16095	-805.55231	261.22672	494.44031																																					
175	3.480	-309.64786	112.82729	1682.78027	-432.57819	-78.99326	1412.12329	-461.95517	274.36542	1421.02576	-493.71454	95.49998	1210.09534	-689.47644	-12.53365	1018.28925	-688.65308	229.49657	1037.14844	-874.63000	85.29964	1098.00281	-764.72540	-79.46512	871.07251	-678.41895	-7.04379	810.35760	-763.38348	-66.33105	753.38910	-755.93146	-37.36620	615.24487				-754.99060	-34.06204	567.76111				-785.99286	-51.05357	484.06030				-641.28528	-59.77873	163.14240	-599.59393	-62.10864	157.59598	-546.28601	-10.51894	161.42480	-600.93726	38.83423	166.14632	-727.35889	68.20551	217.01530	-677.72815	56.92001	159.37260				-783.90515	279.79086	873.39191	-683.39246	209.05188	795.10626				-791.43427	252.18408	635.78088							-726.04364	196.41879	536.99646	-805.67444	260.93781	494.27243																																					
176	3.500	-314.35687	113.00881	1686.40833	-435.82434	-79.15203	1414.93396	-465.17419	274.28262	1423.60229	-495.20340	95.18655	1212.32996	-689.58875	-12.57378	1018.36060	-688.80884	229.22070	1037.59351	-875.26428	85.11382	1097.45154	-764.95337	-79.91493	871.25562	-678.46497	-7.19697	810.29321	-763.33649	-66.47520	753.41241	-755.76941	-37.44136	615.10071				-754.86542	-34.41399	567.82062				-785.99084	-51.11533	483.74707				-641.29462	-59.83862	162.94307	-599.59393	-62.10864	157.59598	-546.20392	-10.57013	161.32535	-600.93726	38.83423	166.14632	-727.07123	68.05347	217.44835	-677.63000	56.81398	159.32800				-784.23010	279.56165	873.61475	-683.36981	208.88840	794.99878				-791.56079	252.12303	635.76135							-725.98065	196.34195	536.98767	-805.72491	260.88043	494.11359																																					
177	3.520	-319.80444	112.45496	1690.29663	-439.00977	-79.21540	1417.80774	-468.93182	274.01685	1425.86194	-497.07126	95.03457	1214.69641	-689.78015	-12.44820	1018.83667	-689.02094	229.09464	1037.81238	-875.76941	84.68840	1097.00842	-765.03662	-79.99969	870.94806	-678.22455	-7.49020	810.48749	-763.46027	-66.75345	753.79022	-755.87866	-37.44054	615.01477				-754.65332	-34.42171	567.99945				-785.65204	-51.31162	483.98633				-641.52423	-59.63264	163.00839	-599.68372	-62.15580	157.69655	-546.27313	-10.61452	161.63098	-600.93726	38.83423	166.14632	-727.46252	68.06597	217.17230	-677.63000	56.81398	159.32800				-784.13190	279.42041	873.41986	-683.44830	208.69142	795.20844				-791.46570	251.96503	635.59686							-726.11932	196.24045	536.82587	-806.04962	260.53506	493.99051																																					
178	3.540	-325.26581	112.29491	1693.95313	-442.69400	-79.46337	1420.48083	-472.34283	274.02530	1428.68176	-498.47394	94.52759	1216.86316	-690.13495	-13.18668	1019.86157	-689.19781	229.02390	1038.35498	-876.27899	84.27311	1096.68262	-765.22913	-80.04681	870.91315	-678.06989	-7.56037	810.45068	-763.30304	-66.95850	753.48553	-755.97650	-37.51983	614.89789				-754.68842	-34.57154	568.03687				-785.50287	-51.54866	483.78250				-641.52423	-59.63264	163.00839	-599.49365	-62.21863	157.76906	-546.39484	-10.71142	161.47542	-600.93726	38.83423	166.14632	-727.22559	68.08811	216.42924	-677.69739	56.83186	159.44615				-783.91974	279.17432	873.63507	-683.37201	208.60837	795.30688				-791.32672	251.80415	635.68732							-726.11932	196.24045	536.82587	-806.10431	260.25211	494.00986																																					
179	3.560	-330.97800	112.30823	1697.96924	-446.06982	-79.73405	1423.11743	-475.38956	273.74506	1431.17871	-500.09268	94.30502	1219.14734	-690.27728	-13.69021	1020.54565	-689.37317	228.75990	1038.85889	-877.01300	84.31605	1096.39893	-765.14172	-80.17106	870.92285	-678.32373	-8.39688	810.53876	-763.44714	-67.12656	753.58319	-755.94617	-37.88521	614.80865				-754.85126	-34.71925	568.07886				-785.63873	-51.69622	483.84375				-641.39954	-59.63538	163.12573	-599.51819	-62.23432	157.81134	-546.29163	-10.41895	161.55791	-601.07300	38.94843	166.05190	-727.35474	68.22842	216.78265	-677.81720	57.06158	159.34093				-783.84302	278.99615	873.80035	-683.62042	208.34709	795.13623				-791.25720	251.70499	635.60138							-726.13135	196.05865	536.77625	-806.07874	260.01413	493.86963																																					
180	3.580	-336.72232	111.78748	1701.77112	-449.65549	-80.63822	1426.32275	-479.07687	273.37839	1433.53662	-502.06808	93.97879	1221.61316	-690.29761	-13.93884	1020.99011	-690.02301	228.23599	1039.35632	-877.47552	83.99167	1095.65820	-765.31152	-80.33649	870.80280	-678.43628	-8.67996	810.42645	-763.33185	-67.58685	753.90332	-755.93170	-38.17427	614.71753				-754.81421	-34.99633	568.19476				-785.73889	-51.49654	483.92599				-641.52423	-59.63264	163.00839	-599.68372	-62.15580	157.69655	-546.22003	-10.41831	161.70540	-600.93726	38.83423	166.14632	-727.38318	68.05262	217.14812	-677.72815	56.92001	159.37260				-783.82666	278.80835	874.01910	-683.17279	208.29109	795.55151				-790.91876	251.59877	635.74664							-725.80865	195.96848	536.66162	-806.17712	259.97076	494.14175																																					
181	3.600	-342.63611	111.57074	1705.83264	-453.17691	-80.42606	1429.09521	-482.80066	273.18863	1436.21118	-503.88367	93.76007	1224.10400	-690.65363	-13.94449	1021.50281	-690.15625	227.74934	1039.65137	-877.83929	83.85619	1095.35339	-765.31152	-80.33649	870.80280	-678.55731	-8.96694	810.31836	-763.33655	-67.90224	753.67767	-755.58179	-38.30642	614.94171				-754.85260	-35.07056	568.15424				-785.84296	-51.74352	483.62415				-641.52423	-59.63264	163.00839	-599.60474	-62.17735	157.79243	-546.25879	-10.61029	161.61455	-600.93726	38.83423	166.14632	-727.35889	68.20551	217.01530	-677.61102	56.90388	159.14359				-783.75061	278.34402	873.85815	-683.03772	208.11366	795.64893				-790.81543	251.34692	635.86145							-725.59503	196.00890	536.80951	-805.70172	259.80597	494.29379																																					
182	3.620	-348.73688	110.86069	1709.59412	-457.12500	-80.63844	1432.17468	-486.14420	272.93530	1439.16455	-505.93015	93.44897	1226.62573	-690.66693	-14.36289	1021.83557	-690.09644	227.43402	1039.91296	-878.27173	83.51456	1094.80969	-765.58655	-80.66129	871.22321	-678.29730	-9.28811	810.45642	-763.19025	-68.44947	753.72644	-755.12592	-38.60870	615.02570				-755.09430	-35.22927	568.08386				-785.72552	-51.94751	483.63809				-641.52423	-59.63264	163.00839	-599.59393	-62.10864	157.59598	-546.25879	-10.61029	161.61455	-600.96185	38.76684	166.24709	-727.44794	67.94838	217.31123	-677.63000	56.81398	159.32800				-783.51172	277.77896	874.05396	-682.90961	208.11087	795.75714				-790.78882	251.07724	635.94177							-725.51447	195.76236	536.83740	-805.55023	259.68756	494.03500																																					
